M48
; DRILL file {KiCad (5.1.0)-1} date 15/09/2019 23:58:37
; FORMAT={-:-/ absolute / metric / decimal}
; #@! TF.CreationDate,2019-09-15T23:58:37+02:00
; #@! TF.GenerationSoftware,Kicad,Pcbnew,(5.1.0)-1
; #@! TF.FileFunction,Plated,1,2,PTH
FMAT,2
METRIC
T1C0.400
T2C0.500
T3C0.600
T4C0.800
T5C0.900
T6C1.000
T7C1.016
T8C1.150
T9C1.300
T10C2.200
T11C2.500
%
G90
G05
T1
X51.0Y-68.0
X51.0Y-75.0
X52.0Y-80.0
X52.0Y-105.0
X52.0Y-125.0
X52.0Y-135.0
X54.0Y-105.0
X55.0Y-60.0
X55.0Y-109.0
X55.0Y-119.0
X55.0Y-125.0
X55.0Y-131.0
X55.0Y-135.0
X55.0Y-145.0
X56.0Y-68.0
X56.0Y-75.0
X56.0Y-81.0
X57.0Y-109.0
X57.0Y-112.0
X57.0Y-115.0
X59.0Y-60.0
X59.0Y-68.0
X59.0Y-75.0
X60.0Y-100.0
X60.175Y-108.75
X60.747Y-100.753
X61.0Y-125.0
X61.325Y-108.75
X61.409Y-99.75
X61.5Y-86.0
X62.0Y-107.5
X62.0Y-115.0
X62.061Y-100.439
X63.0Y-90.0
X63.0Y-119.5
X63.0Y-135.0
X63.0Y-145.0
X64.0Y-78.0
X64.0Y-127.5
X64.0Y-131.0
X65.0Y-60.0
X66.0Y-125.0
X66.0Y-135.0
X66.0Y-145.0
X66.067Y-100.067
X66.255Y-101.505
X67.0Y-75.0
X67.0Y-103.0
X67.0Y-113.0
X67.0Y-119.0
X67.6Y-108.101
X68.0Y-115.0
X68.75Y-105.75
X68.75Y-104.75
X69.0Y-52.0
X69.0Y-68.0
X69.0Y-78.0
X69.0Y-131.0
X69.484Y-109.516
X70.75Y-104.9
X71.0Y-75.0
X71.0Y-94.0
X71.0Y-103.0
X71.0Y-115.0
X71.0Y-119.0
X71.25Y-105.75
X73.0Y-125.0
X73.0Y-135.0
X73.0Y-145.0
X73.25Y-131.0
X73.25Y-128.75
X74.0Y-60.0
X74.0Y-78.0
X74.744Y-121.494
X75.0Y-135.0
X75.0Y-145.0
X76.0Y-115.0
X76.0Y-123.25
X76.0Y-131.0
X76.525Y-109.525
X76.75Y-127.5
X77.0Y-86.0
X79.0Y-60.0
X79.0Y-75.0
X79.0Y-105.0
X80.593Y-78.343
X81.0Y-125.0
X81.0Y-135.0
X81.0Y-145.0
X81.079Y-80.079
X83.0Y-60.0
X83.5Y-111.5
X84.0Y-105.0
X84.0Y-135.0
X84.125Y-125.0
X84.5Y-81.3
X84.5Y-82.5
X84.5Y-86.5
X86.0Y-115.0
X86.0Y-125.0
X86.5Y-108.5
X87.0Y-67.0
X87.0Y-75.0
X87.0Y-105.0
X87.0Y-135.0
X87.0Y-139.0
X91.2Y-141.0
X91.5Y-148.0
X92.0Y-106.0
X92.0Y-109.0
X92.0Y-116.0
X92.0Y-120.0
X92.0Y-124.0
X92.0Y-128.0
X92.0Y-131.0
X92.0Y-135.0
X92.0Y-139.0
X94.0Y-63.0
X94.0Y-66.0
X94.0Y-72.0
X94.0Y-76.0
X94.0Y-80.0
X94.0Y-83.0
X94.0Y-86.0
X94.0Y-89.0
X96.0Y-63.0
X96.0Y-106.0
X96.0Y-109.0
X96.0Y-112.0
X96.0Y-116.0
X96.0Y-120.0
X96.0Y-128.0
X96.0Y-131.0
X96.0Y-135.0
X97.0Y-94.0
X97.5Y-100.0
X97.5Y-101.0
X97.633Y-103.633
X97.633Y-104.367
X98.5Y-148.0
X100.0Y-63.0
X100.0Y-66.0
X100.0Y-72.0
X100.0Y-76.0
X100.0Y-80.0
X100.0Y-83.0
X100.0Y-86.0
X100.0Y-89.0
X100.0Y-94.0
X100.0Y-106.0
X100.0Y-109.0
X100.0Y-112.0
X100.0Y-116.0
X100.0Y-120.0
X100.0Y-124.0
X100.0Y-128.0
X100.0Y-131.0
X100.0Y-135.0
X105.0Y-138.0
X107.0Y-135.0
X108.0Y-80.0
X113.0Y-52.0
X113.0Y-59.0
X113.0Y-70.0
X113.0Y-80.0
X113.0Y-100.0
X113.0Y-111.0
X113.0Y-121.0
X113.0Y-133.0
X113.0Y-142.0
X113.0Y-148.0
X116.456Y-130.044
X117.0Y-90.0
X117.269Y-129.231
X121.586Y-119.586
X122.75Y-122.025
X122.756Y-123.525
X123.0Y-119.75
X125.0Y-80.0
X125.0Y-90.0
X125.0Y-97.0
X125.0Y-133.0
X128.0Y-62.0
X129.0Y-111.0
X131.0Y-52.0
X131.0Y-59.0
X131.0Y-100.0
X131.0Y-142.0
X131.0Y-148.0
X133.0Y-80.0
X133.0Y-90.0
X133.0Y-121.0
X133.0Y-133.0
X135.0Y-67.0
X137.0Y-70.0
X137.0Y-80.0
X137.0Y-90.0
X139.0Y-111.0
X140.0Y-121.0
X140.0Y-133.0
X140.0Y-142.0
X147.0Y-61.5
X147.5Y-96.25
X147.5Y-98.0
X147.75Y-138.0
X147.75Y-139.0
X148.0Y-52.0
X148.0Y-100.0
X148.0Y-148.0
X103.85Y-147.0
X104.333Y-145.833
X104.333Y-148.167
X105.5Y-145.35
X105.5Y-148.65
X106.667Y-145.833
X106.667Y-148.167
X107.15Y-147.0
X140.6Y-147.0
X141.083Y-145.833
X141.083Y-148.167
X142.25Y-145.35
X142.25Y-148.65
X143.417Y-145.833
X143.417Y-148.167
X143.9Y-147.0
X103.85Y-53.0
X104.333Y-51.833
X104.333Y-54.167
X105.5Y-51.35
X105.5Y-54.65
X106.667Y-51.833
X106.667Y-54.167
X107.15Y-53.0
X83.85Y-52.5
X84.333Y-51.333
X84.333Y-53.667
X85.5Y-50.85
X85.5Y-54.15
X86.667Y-51.333
X86.667Y-53.667
X87.15Y-52.5
X140.6Y-53.0
X141.083Y-51.833
X141.083Y-54.167
X142.25Y-51.35
X142.25Y-54.65
X143.417Y-51.833
X143.417Y-54.167
X143.9Y-53.0
X51.005Y-52.425
X51.488Y-51.258
X51.488Y-53.592
X52.655Y-50.775
X52.655Y-54.075
X53.822Y-51.258
X53.822Y-53.592
X54.305Y-52.425
T2
X51.125Y-147.0
X51.674Y-145.674
X51.674Y-148.326
X53.0Y-145.125
X53.0Y-148.875
X54.326Y-145.674
X54.326Y-148.326
X54.875Y-147.0
X123.2Y-53.025
X123.749Y-51.699
X123.749Y-54.351
X125.075Y-51.15
X125.075Y-54.9
X126.401Y-51.699
X126.401Y-54.351
X126.95Y-53.025
X83.125Y-147.0
X83.674Y-145.674
X83.674Y-148.326
X85.0Y-145.125
X85.0Y-148.875
X86.326Y-145.674
X86.326Y-148.326
X86.875Y-147.0
X92.625Y-147.0
X93.174Y-145.674
X93.174Y-148.326
X94.5Y-145.125
X94.5Y-148.875
X95.826Y-145.674
X95.826Y-148.326
X96.375Y-147.0
X123.125Y-147.0
X123.674Y-145.674
X123.674Y-148.326
X125.0Y-145.125
X125.0Y-148.875
X126.326Y-145.674
X126.326Y-148.326
X126.875Y-147.0
X92.625Y-53.0
X93.174Y-51.674
X93.174Y-54.326
X94.5Y-51.125
X94.5Y-54.875
X95.826Y-51.674
X95.826Y-54.326
X96.375Y-53.0
T4
X93.5Y-111.0
X93.5Y-113.5
X92.5Y-59.5
X95.0Y-59.5
X76.5Y-67.0
X76.5Y-69.5
X62.0Y-67.0
X62.0Y-69.5
T5
X138.75Y-98.0
X141.29Y-98.0
X67.96Y-127.0
X70.5Y-127.0
X68.0Y-123.0
X70.54Y-123.0
X138.75Y-139.5
X141.29Y-139.5
T6
X66.5Y-82.5
X69.0Y-82.5
X71.5Y-82.5
X105.5Y-115.68
X105.5Y-118.22
X105.5Y-120.76
X105.5Y-123.3
X105.5Y-125.84
X105.5Y-128.38
X105.5Y-130.92
X105.5Y-133.46
X105.5Y-136.0
X86.5Y-57.5
X86.5Y-60.0
X86.5Y-62.5
X51.5Y-57.5
X51.5Y-60.0
X51.5Y-62.5
X105.5Y-64.68
X105.5Y-67.22
X105.5Y-69.76
X105.5Y-72.3
X105.5Y-74.84
X105.5Y-77.38
X105.5Y-79.92
X105.5Y-82.46
X105.5Y-85.0
X128.0Y-64.68
X128.0Y-67.22
X128.0Y-69.76
X128.0Y-72.3
X128.0Y-74.84
X128.0Y-77.38
X128.0Y-79.92
X128.0Y-82.46
X128.0Y-85.0
X128.0Y-115.76
X128.0Y-118.3
X128.0Y-120.84
X128.0Y-123.38
X128.0Y-125.92
X128.0Y-128.46
X128.0Y-131.0
X128.0Y-133.54
X128.0Y-136.08
T7
X67.96Y-55.5
X67.96Y-58.04
X67.96Y-60.58
X67.96Y-63.12
X67.96Y-65.66
X70.5Y-55.5
X70.5Y-58.04
X70.5Y-60.58
X70.5Y-63.12
X70.5Y-65.66
X91.96Y-93.84
X91.96Y-96.38
X91.96Y-98.92
X91.96Y-101.46
X91.96Y-104.0
X94.5Y-93.84
X94.5Y-96.38
X94.5Y-98.92
X94.5Y-101.46
X94.5Y-104.0
T9
X108.0Y-85.167
X108.0Y-90.167
X108.0Y-95.167
X108.0Y-126.5
X108.0Y-131.5
X108.0Y-136.5
X108.0Y-64.5
X108.0Y-69.5
X108.0Y-74.5
X108.0Y-105.833
X108.0Y-110.833
X108.0Y-115.833
T10
X105.5Y-53.0
X85.5Y-52.5
X142.25Y-53.0
X52.655Y-52.425
X105.5Y-147.0
X142.25Y-147.0
T11
X125.0Y-147.0
X53.0Y-147.0
X94.5Y-147.0
X94.5Y-53.0
X125.075Y-53.025
X85.0Y-147.0
T2
G00X78.2Y-120.08
M15
G01X79.8Y-120.08
M16
G05
G00X58.2Y-136.08
M15
G01X59.8Y-136.08
M16
G05
G00X135.08Y-121.8
M15
G01X135.08Y-120.2
M16
G05
G00X135.08Y-111.55
M15
G01X135.08Y-109.95
M16
G05
G00X68.2Y-136.08
M15
G01X69.8Y-136.08
M16
G05
G00X78.2Y-136.08
M15
G01X79.8Y-136.08
M16
G05
G00X135.08Y-80.55
M15
G01X135.08Y-78.95
M16
G05
G00X135.08Y-132.3
M15
G01X135.08Y-130.7
M16
G05
G00X135.08Y-90.8
M15
G01X135.08Y-89.2
M16
G05
G00X58.225Y-120.005
M15
G01X59.825Y-120.005
M16
G05
G00X135.08Y-70.3
M15
G01X135.08Y-68.7
M16
G05
T3
G00X143.38Y-132.2
M15
G01X143.38Y-130.8
M16
G05
G00X146.48Y-131.9
M15
G01X146.48Y-131.1
M16
G05
G00X143.38Y-90.7
M15
G01X143.38Y-89.3
M16
G05
G00X146.48Y-90.4
M15
G01X146.48Y-89.6
M16
G05
G00X58.325Y-128.305
M15
G01X59.725Y-128.305
M16
G05
G00X58.625Y-131.405
M15
G01X59.425Y-131.405
M16
G05
G00X143.38Y-70.2
M15
G01X143.38Y-68.8
M16
G05
G00X146.48Y-69.9
M15
G01X146.48Y-69.1
M16
G05
G00X78.3Y-128.38
M15
G01X79.7Y-128.38
M16
G05
G00X78.6Y-131.48
M15
G01X79.4Y-131.48
M16
G05
G00X58.3Y-144.38
M15
G01X59.7Y-144.38
M16
G05
G00X58.6Y-147.48
M15
G01X59.4Y-147.48
M16
G05
G00X143.38Y-121.7
M15
G01X143.38Y-120.3
M16
G05
G00X146.48Y-121.4
M15
G01X146.48Y-120.6
M16
G05
G00X143.38Y-111.45
M15
G01X143.38Y-110.05
M16
G05
G00X146.48Y-111.15
M15
G01X146.48Y-110.35
M16
G05
G00X68.3Y-144.38
M15
G01X69.7Y-144.38
M16
G05
G00X68.6Y-147.48
M15
G01X69.4Y-147.48
M16
G05
G00X78.3Y-144.38
M15
G01X79.7Y-144.38
M16
G05
G00X78.6Y-147.48
M15
G01X79.4Y-147.48
M16
G05
G00X143.38Y-80.45
M15
G01X143.38Y-79.05
M16
G05
G00X146.48Y-80.15
M15
G01X146.48Y-79.35
M16
G05
T6
G00X54.3Y-114.35
M15
G01X54.3Y-115.65
M16
G05
G00X59.0Y-114.35
M15
G01X59.0Y-115.65
M16
G05
G00X63.7Y-114.35
M15
G01X63.7Y-115.65
M16
G05
G00X83.65Y-93.8
M15
G01X82.35Y-93.8
M16
G05
G00X83.65Y-98.5
M15
G01X82.35Y-98.5
M16
G05
G00X83.65Y-103.2
M15
G01X82.35Y-103.2
M16
G05
G00X74.3Y-115.65
M15
G01X74.3Y-114.35
M16
G05
G00X79.0Y-115.65
M15
G01X79.0Y-114.35
M16
G05
G00X83.7Y-115.65
M15
G01X83.7Y-114.35
M16
G05
G00X75.65Y-93.8
M15
G01X74.35Y-93.8
M16
G05
G00X75.65Y-98.5
M15
G01X74.35Y-98.5
M16
G05
G00X75.65Y-103.2
M15
G01X74.35Y-103.2
M16
G05
T8
G00X55.506Y-93.3
M15
G01X56.906Y-93.3
M16
G05
G00X55.506Y-98.0
M15
G01X56.906Y-98.0
M16
G05
G00X55.506Y-102.7
M15
G01X56.906Y-102.7
M16
G05
G00X61.094Y-93.3
M15
G01X62.494Y-93.3
M16
G05
G00X61.094Y-98.0
M15
G01X62.494Y-98.0
M16
G05
G00X61.094Y-102.7
M15
G01X62.494Y-102.7
M16
G05
T0
M30
