%TF.GenerationSoftware,KiCad,Pcbnew,(5.1.0)-1*%
%TF.CreationDate,2019-09-15T23:57:34+02:00*%
%TF.ProjectId,KicadJE_EffectsUnit2,4b696361-644a-4455-9f45-666665637473,rev?*%
%TF.SameCoordinates,Original*%
%TF.FileFunction,Profile,NP*%
%FSLAX46Y46*%
G04 Gerber Fmt 4.6, Leading zero omitted, Abs format (unit mm)*
G04 Created by KiCad (PCBNEW (5.1.0)-1) date 2019-09-15 23:57:34*
%MOMM*%
%LPD*%
G04 APERTURE LIST*
%ADD10C,1.000000*%
%ADD11C,0.050000*%
G04 APERTURE END LIST*
D10*
X130500000Y-60000000D02*
X130500000Y-97000000D01*
X131500000Y-104000000D02*
X131500000Y-140000000D01*
X130500000Y-104000000D02*
X131500000Y-104000000D01*
X130500000Y-97000000D02*
X131500000Y-97000000D01*
X110500000Y-104000000D02*
X110500000Y-140000000D01*
X100000000Y-104000000D02*
X110500000Y-104000000D01*
X100000000Y-97000000D02*
X100000000Y-104000000D01*
X110500000Y-97000000D02*
X100000000Y-97000000D01*
X100000000Y-61000000D02*
X100000000Y-58500000D01*
X100000000Y-61000000D02*
X110500000Y-61000000D01*
X111000000Y-58500000D02*
X100000000Y-58500000D01*
X100000000Y-142500000D02*
X100000000Y-140000000D01*
X100000000Y-142500000D02*
X111000000Y-142500000D01*
X110500000Y-140000000D02*
X100000000Y-140000000D01*
X130500000Y-104000000D02*
X130500000Y-140000000D01*
X130500000Y-140000000D02*
X131500000Y-140000000D01*
X130500000Y-60000000D02*
X131500000Y-60000000D01*
X131500000Y-60000000D02*
X131500000Y-97000000D01*
X89000000Y-60000000D02*
X90000000Y-60000000D01*
X89000000Y-140000000D02*
X90000000Y-140000000D01*
X110500000Y-61000000D02*
X110500000Y-97000000D01*
X111000000Y-58500000D02*
X111000000Y-142500000D01*
X90000000Y-60000000D02*
X90000000Y-140000000D01*
X89000000Y-60000000D02*
X89000000Y-140000000D01*
D11*
X50000000Y-150000000D02*
X50000000Y-50000000D01*
X150000000Y-150000000D02*
X50000000Y-150000000D01*
X150000000Y-50000000D02*
X150000000Y-150000000D01*
X50000000Y-50000000D02*
X150000000Y-50000000D01*
M02*
