%TF.GenerationSoftware,KiCad,Pcbnew,(5.1.0)-1*%
%TF.CreationDate,2019-09-15T23:57:33+02:00*%
%TF.ProjectId,KicadJE_EffectsUnit2,4b696361-644a-4455-9f45-666665637473,rev?*%
%TF.SameCoordinates,Original*%
%TF.FileFunction,Paste,Top*%
%TF.FilePolarity,Positive*%
%FSLAX46Y46*%
G04 Gerber Fmt 4.6, Leading zero omitted, Abs format (unit mm)*
G04 Created by KiCad (PCBNEW (5.1.0)-1) date 2019-09-15 23:57:33*
%MOMM*%
%LPD*%
G04 APERTURE LIST*
%ADD10C,1.000000*%
%ADD11C,0.050000*%
%ADD12R,1.200000X0.900000*%
%ADD13C,0.150000*%
%ADD14C,1.150000*%
G04 APERTURE END LIST*
D10*
X130500000Y-60000000D02*
X130500000Y-97000000D01*
X131500000Y-104000000D02*
X131500000Y-140000000D01*
X130500000Y-104000000D02*
X131500000Y-104000000D01*
X130500000Y-97000000D02*
X131500000Y-97000000D01*
X110500000Y-104000000D02*
X110500000Y-140000000D01*
X100000000Y-104000000D02*
X110500000Y-104000000D01*
X100000000Y-97000000D02*
X100000000Y-104000000D01*
X110500000Y-97000000D02*
X100000000Y-97000000D01*
X100000000Y-61000000D02*
X100000000Y-58500000D01*
X100000000Y-61000000D02*
X110500000Y-61000000D01*
X111000000Y-58500000D02*
X100000000Y-58500000D01*
X100000000Y-142500000D02*
X100000000Y-140000000D01*
X100000000Y-142500000D02*
X111000000Y-142500000D01*
X110500000Y-140000000D02*
X100000000Y-140000000D01*
X130500000Y-104000000D02*
X130500000Y-140000000D01*
X130500000Y-140000000D02*
X131500000Y-140000000D01*
X130500000Y-60000000D02*
X131500000Y-60000000D01*
X131500000Y-60000000D02*
X131500000Y-97000000D01*
X89000000Y-60000000D02*
X90000000Y-60000000D01*
X89000000Y-140000000D02*
X90000000Y-140000000D01*
X110500000Y-61000000D02*
X110500000Y-97000000D01*
X111000000Y-58500000D02*
X111000000Y-142500000D01*
X90000000Y-60000000D02*
X90000000Y-140000000D01*
X89000000Y-60000000D02*
X89000000Y-140000000D01*
D11*
X50000000Y-150000000D02*
X50000000Y-50000000D01*
X150000000Y-150000000D02*
X50000000Y-150000000D01*
X150000000Y-50000000D02*
X150000000Y-150000000D01*
X50000000Y-50000000D02*
X150000000Y-50000000D01*
D12*
X66000000Y-58800000D03*
X66000000Y-55500000D03*
X66000000Y-61350000D03*
X66000000Y-64650000D03*
X94000000Y-129650000D03*
X94000000Y-126350000D03*
X94000000Y-121850000D03*
X94000000Y-125150000D03*
D13*
G36*
X149474505Y-95376204D02*
G01*
X149498773Y-95379804D01*
X149522572Y-95385765D01*
X149545671Y-95394030D01*
X149567850Y-95404520D01*
X149588893Y-95417132D01*
X149608599Y-95431747D01*
X149626777Y-95448223D01*
X149643253Y-95466401D01*
X149657868Y-95486107D01*
X149670480Y-95507150D01*
X149680970Y-95529329D01*
X149689235Y-95552428D01*
X149695196Y-95576227D01*
X149698796Y-95600495D01*
X149700000Y-95624999D01*
X149700000Y-96275001D01*
X149698796Y-96299505D01*
X149695196Y-96323773D01*
X149689235Y-96347572D01*
X149680970Y-96370671D01*
X149670480Y-96392850D01*
X149657868Y-96413893D01*
X149643253Y-96433599D01*
X149626777Y-96451777D01*
X149608599Y-96468253D01*
X149588893Y-96482868D01*
X149567850Y-96495480D01*
X149545671Y-96505970D01*
X149522572Y-96514235D01*
X149498773Y-96520196D01*
X149474505Y-96523796D01*
X149450001Y-96525000D01*
X148549999Y-96525000D01*
X148525495Y-96523796D01*
X148501227Y-96520196D01*
X148477428Y-96514235D01*
X148454329Y-96505970D01*
X148432150Y-96495480D01*
X148411107Y-96482868D01*
X148391401Y-96468253D01*
X148373223Y-96451777D01*
X148356747Y-96433599D01*
X148342132Y-96413893D01*
X148329520Y-96392850D01*
X148319030Y-96370671D01*
X148310765Y-96347572D01*
X148304804Y-96323773D01*
X148301204Y-96299505D01*
X148300000Y-96275001D01*
X148300000Y-95624999D01*
X148301204Y-95600495D01*
X148304804Y-95576227D01*
X148310765Y-95552428D01*
X148319030Y-95529329D01*
X148329520Y-95507150D01*
X148342132Y-95486107D01*
X148356747Y-95466401D01*
X148373223Y-95448223D01*
X148391401Y-95431747D01*
X148411107Y-95417132D01*
X148432150Y-95404520D01*
X148454329Y-95394030D01*
X148477428Y-95385765D01*
X148501227Y-95379804D01*
X148525495Y-95376204D01*
X148549999Y-95375000D01*
X149450001Y-95375000D01*
X149474505Y-95376204D01*
X149474505Y-95376204D01*
G37*
D14*
X149000000Y-95950000D03*
D13*
G36*
X149474505Y-97426204D02*
G01*
X149498773Y-97429804D01*
X149522572Y-97435765D01*
X149545671Y-97444030D01*
X149567850Y-97454520D01*
X149588893Y-97467132D01*
X149608599Y-97481747D01*
X149626777Y-97498223D01*
X149643253Y-97516401D01*
X149657868Y-97536107D01*
X149670480Y-97557150D01*
X149680970Y-97579329D01*
X149689235Y-97602428D01*
X149695196Y-97626227D01*
X149698796Y-97650495D01*
X149700000Y-97674999D01*
X149700000Y-98325001D01*
X149698796Y-98349505D01*
X149695196Y-98373773D01*
X149689235Y-98397572D01*
X149680970Y-98420671D01*
X149670480Y-98442850D01*
X149657868Y-98463893D01*
X149643253Y-98483599D01*
X149626777Y-98501777D01*
X149608599Y-98518253D01*
X149588893Y-98532868D01*
X149567850Y-98545480D01*
X149545671Y-98555970D01*
X149522572Y-98564235D01*
X149498773Y-98570196D01*
X149474505Y-98573796D01*
X149450001Y-98575000D01*
X148549999Y-98575000D01*
X148525495Y-98573796D01*
X148501227Y-98570196D01*
X148477428Y-98564235D01*
X148454329Y-98555970D01*
X148432150Y-98545480D01*
X148411107Y-98532868D01*
X148391401Y-98518253D01*
X148373223Y-98501777D01*
X148356747Y-98483599D01*
X148342132Y-98463893D01*
X148329520Y-98442850D01*
X148319030Y-98420671D01*
X148310765Y-98397572D01*
X148304804Y-98373773D01*
X148301204Y-98349505D01*
X148300000Y-98325001D01*
X148300000Y-97674999D01*
X148301204Y-97650495D01*
X148304804Y-97626227D01*
X148310765Y-97602428D01*
X148319030Y-97579329D01*
X148329520Y-97557150D01*
X148342132Y-97536107D01*
X148356747Y-97516401D01*
X148373223Y-97498223D01*
X148391401Y-97481747D01*
X148411107Y-97467132D01*
X148432150Y-97454520D01*
X148454329Y-97444030D01*
X148477428Y-97435765D01*
X148501227Y-97429804D01*
X148525495Y-97426204D01*
X148549999Y-97425000D01*
X149450001Y-97425000D01*
X149474505Y-97426204D01*
X149474505Y-97426204D01*
G37*
D14*
X149000000Y-98000000D03*
D13*
G36*
X149474505Y-136876204D02*
G01*
X149498773Y-136879804D01*
X149522572Y-136885765D01*
X149545671Y-136894030D01*
X149567850Y-136904520D01*
X149588893Y-136917132D01*
X149608599Y-136931747D01*
X149626777Y-136948223D01*
X149643253Y-136966401D01*
X149657868Y-136986107D01*
X149670480Y-137007150D01*
X149680970Y-137029329D01*
X149689235Y-137052428D01*
X149695196Y-137076227D01*
X149698796Y-137100495D01*
X149700000Y-137124999D01*
X149700000Y-137775001D01*
X149698796Y-137799505D01*
X149695196Y-137823773D01*
X149689235Y-137847572D01*
X149680970Y-137870671D01*
X149670480Y-137892850D01*
X149657868Y-137913893D01*
X149643253Y-137933599D01*
X149626777Y-137951777D01*
X149608599Y-137968253D01*
X149588893Y-137982868D01*
X149567850Y-137995480D01*
X149545671Y-138005970D01*
X149522572Y-138014235D01*
X149498773Y-138020196D01*
X149474505Y-138023796D01*
X149450001Y-138025000D01*
X148549999Y-138025000D01*
X148525495Y-138023796D01*
X148501227Y-138020196D01*
X148477428Y-138014235D01*
X148454329Y-138005970D01*
X148432150Y-137995480D01*
X148411107Y-137982868D01*
X148391401Y-137968253D01*
X148373223Y-137951777D01*
X148356747Y-137933599D01*
X148342132Y-137913893D01*
X148329520Y-137892850D01*
X148319030Y-137870671D01*
X148310765Y-137847572D01*
X148304804Y-137823773D01*
X148301204Y-137799505D01*
X148300000Y-137775001D01*
X148300000Y-137124999D01*
X148301204Y-137100495D01*
X148304804Y-137076227D01*
X148310765Y-137052428D01*
X148319030Y-137029329D01*
X148329520Y-137007150D01*
X148342132Y-136986107D01*
X148356747Y-136966401D01*
X148373223Y-136948223D01*
X148391401Y-136931747D01*
X148411107Y-136917132D01*
X148432150Y-136904520D01*
X148454329Y-136894030D01*
X148477428Y-136885765D01*
X148501227Y-136879804D01*
X148525495Y-136876204D01*
X148549999Y-136875000D01*
X149450001Y-136875000D01*
X149474505Y-136876204D01*
X149474505Y-136876204D01*
G37*
D14*
X149000000Y-137450000D03*
D13*
G36*
X149474505Y-138926204D02*
G01*
X149498773Y-138929804D01*
X149522572Y-138935765D01*
X149545671Y-138944030D01*
X149567850Y-138954520D01*
X149588893Y-138967132D01*
X149608599Y-138981747D01*
X149626777Y-138998223D01*
X149643253Y-139016401D01*
X149657868Y-139036107D01*
X149670480Y-139057150D01*
X149680970Y-139079329D01*
X149689235Y-139102428D01*
X149695196Y-139126227D01*
X149698796Y-139150495D01*
X149700000Y-139174999D01*
X149700000Y-139825001D01*
X149698796Y-139849505D01*
X149695196Y-139873773D01*
X149689235Y-139897572D01*
X149680970Y-139920671D01*
X149670480Y-139942850D01*
X149657868Y-139963893D01*
X149643253Y-139983599D01*
X149626777Y-140001777D01*
X149608599Y-140018253D01*
X149588893Y-140032868D01*
X149567850Y-140045480D01*
X149545671Y-140055970D01*
X149522572Y-140064235D01*
X149498773Y-140070196D01*
X149474505Y-140073796D01*
X149450001Y-140075000D01*
X148549999Y-140075000D01*
X148525495Y-140073796D01*
X148501227Y-140070196D01*
X148477428Y-140064235D01*
X148454329Y-140055970D01*
X148432150Y-140045480D01*
X148411107Y-140032868D01*
X148391401Y-140018253D01*
X148373223Y-140001777D01*
X148356747Y-139983599D01*
X148342132Y-139963893D01*
X148329520Y-139942850D01*
X148319030Y-139920671D01*
X148310765Y-139897572D01*
X148304804Y-139873773D01*
X148301204Y-139849505D01*
X148300000Y-139825001D01*
X148300000Y-139174999D01*
X148301204Y-139150495D01*
X148304804Y-139126227D01*
X148310765Y-139102428D01*
X148319030Y-139079329D01*
X148329520Y-139057150D01*
X148342132Y-139036107D01*
X148356747Y-139016401D01*
X148373223Y-138998223D01*
X148391401Y-138981747D01*
X148411107Y-138967132D01*
X148432150Y-138954520D01*
X148454329Y-138944030D01*
X148477428Y-138935765D01*
X148501227Y-138929804D01*
X148525495Y-138926204D01*
X148549999Y-138925000D01*
X149450001Y-138925000D01*
X149474505Y-138926204D01*
X149474505Y-138926204D01*
G37*
D14*
X149000000Y-139500000D03*
M02*
